<?xml version="1.0" encoding="UTF-8"?>
<!DOCTYPE svg PUBLIC "-//W3C//DTD SVG 1.1//EN" "http://www.w3.org/Graphics/SVG/1.1/DTD/svg11.dtd">
<svg xmlns="http://www.w3.org/2000/svg" version="1.1" width="200px" height="200px" style="shape-rendering:geometricPrecision; text-rendering:geometricPrecision; image-rendering:optimizeQuality; fill-rule:evenodd; clip-rule:evenodd" xmlns:xlink="http://www.w3.org/1999/xlink">
<g><path style="opacity:0.991" fill="#370788" d="M 114.5,161.5 C 113.5,161.5 112.5,161.5 111.5,161.5C 111.5,158.5 111.5,155.5 111.5,152.5C 103.833,152.5 96.1667,152.5 88.5,152.5C 88.5,155.5 88.5,158.5 88.5,161.5C 87.5,161.5 86.5,161.5 85.5,161.5C 85.5,158.5 85.5,155.5 85.5,152.5C 59.1646,152.667 32.8312,152.5 6.5,152C 5.69194,151.692 5.02527,151.192 4.5,150.5C 3.33929,109.541 3.17262,68.5414 4,27.5C 4.5,26.3333 5.33333,25.5 6.5,25C 68.5,24.3333 130.5,24.3333 192.5,25C 193.667,25.5 194.5,26.3333 195,27.5C 195.827,68.5414 195.661,109.541 194.5,150.5C 193.975,151.192 193.308,151.692 192.5,152C 166.502,152.5 140.502,152.667 114.5,152.5C 114.5,155.5 114.5,158.5 114.5,161.5 Z"/></g>
<g><path style="opacity:1" fill="#9926c2" d="M 8.5,27.5 C 69.1676,27.3333 129.834,27.5 190.5,28C 191,28.5 191.5,29 192,29.5C 192.667,68.8333 192.667,108.167 192,147.5C 191.5,148 191,148.5 190.5,149C 129.833,149.667 69.1667,149.667 8.5,149C 8,148.5 7.5,148 7,147.5C 6.33333,108.167 6.33333,68.8333 7,29.5C 7.71719,28.9558 8.21719,28.2891 8.5,27.5 Z"/></g>
<g><path style="opacity:1" fill="#a52ad2" d="M 11.5,28.5 C 70.1705,28.1667 128.837,28.5 187.5,29.5C 188.167,30.8333 189.167,31.8333 190.5,32.5C 191.833,69.8333 191.833,107.167 190.5,144.5C 189.167,145.167 188.167,146.167 187.5,147.5C 128.833,148.833 70.1667,148.833 11.5,147.5C 10.8333,146.167 9.83333,145.167 8.5,144.5C 7.16667,107.167 7.16667,69.8333 8.5,32.5C 10.2882,31.7174 11.2882,30.3841 11.5,28.5 Z"/></g>
<g><path style="opacity:1" fill="#b12fe0" d="M 187.5,144.5 C 187.389,145.117 187.056,145.617 186.5,146C 128.5,146.667 70.5,146.667 12.5,146C 11.6667,145.167 10.8333,144.333 10,143.5C 9.33333,106.833 9.33333,70.1667 10,33.5C 10.8333,32.6667 11.6667,31.8333 12.5,31C 70.5,30.3333 128.5,30.3333 186.5,31C 187.333,31.8333 188.167,32.6667 189,33.5C 189.667,70.1667 189.667,106.833 189,143.5C 188.617,144.056 188.117,144.389 187.5,144.5 Z"/></g>
<g><path style="opacity:1" fill="#b731e8" d="M 187.5,144.5 C 129.166,144.667 70.8324,144.5 12.5,144C 11.3373,107.238 11.1706,70.4046 12,33.5C 70.0962,32.3358 128.263,32.1692 186.5,33C 187.496,70.0939 187.83,107.261 187.5,144.5 Z"/></g>
<g><path style="opacity:1" fill="#1633a6" d="M 23.5,38.5 C 74.9174,38.0091 126.251,38.5091 177.5,40C 178.126,40.7504 178.626,41.5838 179,42.5C 179.167,57.8333 179.333,73.1667 179.5,88.5C 179.653,104.589 179.153,120.589 178,136.5C 177.25,137.126 176.416,137.626 175.5,138C 150.167,138.167 124.833,138.333 99.5,138.5C 73.415,138.658 47.415,138.158 21.5,137C 20.8742,136.25 20.3742,135.416 20,134.5C 19.3333,103.833 19.3333,73.1667 20,42.5C 20.6897,40.6498 21.8564,39.3164 23.5,38.5 Z"/></g>
<g><path style="opacity:1" fill="#42eff6" d="M 98.5,41.5 C 73.3926,70.7278 48.0592,99.7278 22.5,128.5C 22.3334,100.165 22.5,71.8314 23,43.5C 23.5,43 24,42.5 24.5,42C 49.1644,41.5 73.8311,41.3334 98.5,41.5 Z"/></g>
<g><path style="opacity:1" fill="#fefefe" d="M 98.5,41.5 C 116.833,41.5 135.167,41.5 153.5,41.5C 141.726,55.3948 129.726,69.0614 117.5,82.5C 108.046,75.5932 98.7131,68.4265 89.5,61C 87.8659,60.5065 86.1992,60.3398 84.5,60.5C 84.5,78.8333 84.5,97.1667 84.5,115.5C 85.8333,115.5 87.1667,115.5 88.5,115.5C 82.8333,122.167 77.1667,128.833 71.5,135.5C 55.8298,135.667 40.1631,135.5 24.5,135C 22.771,133.211 22.1043,131.044 22.5,128.5C 48.0592,99.7278 73.3926,70.7278 98.5,41.5 Z"/></g>
<g><path style="opacity:1" fill="#4feff6" d="M 153.5,41.5 C 156.167,41.5 158.833,41.5 161.5,41.5C 148.844,56.8206 135.844,71.8206 122.5,86.5C 120.251,85.9202 118.585,84.5869 117.5,82.5C 129.726,69.0614 141.726,55.3948 153.5,41.5 Z"/></g>
<g><path style="opacity:1" fill="#fdfefe" d="M 161.5,41.5 C 165.846,41.3343 170.179,41.501 174.5,42C 176.34,44.8263 177.006,47.9929 176.5,51.5C 151.49,79.1778 126.823,107.178 102.5,135.5C 95.1667,135.5 87.8333,135.5 80.5,135.5C 90.7679,122.56 101.435,109.893 112.5,97.5C 115.974,94.1983 119.641,91.0316 123.5,88C 122.944,87.6174 122.611,87.1174 122.5,86.5C 135.844,71.8206 148.844,56.8206 161.5,41.5 Z"/></g>
<g><path style="opacity:1" fill="#42eff6" d="M 176.5,51.5 C 176.667,78.8354 176.5,106.169 176,133.5C 175.5,134 175,134.5 174.5,135C 150.502,135.5 126.502,135.667 102.5,135.5C 126.823,107.178 151.49,79.1778 176.5,51.5 Z"/></g>
<g><path style="opacity:1" fill="#1c309e" d="M 117.5,82.5 C 118.585,84.5869 120.251,85.9202 122.5,86.5C 122.611,87.1174 122.944,87.6174 123.5,88C 119.641,91.0316 115.974,94.1983 112.5,97.5C 104.236,103.091 96.2356,109.091 88.5,115.5C 87.1667,115.5 85.8333,115.5 84.5,115.5C 84.5,97.1667 84.5,78.8333 84.5,60.5C 86.1992,60.3398 87.8659,60.5065 89.5,61C 98.7131,68.4265 108.046,75.5932 117.5,82.5 Z"/></g>
<g><path style="opacity:1" fill="#325ef9" d="M 87.5,64.5 C 98.2219,71.7089 108.555,79.5423 118.5,88C 108.643,96.0241 98.6434,103.857 88.5,111.5C 87.5006,95.8475 87.1673,80.1808 87.5,64.5 Z"/></g>
<g><path style="opacity:1" fill="#4dedf5" d="M 112.5,97.5 C 101.435,109.893 90.7679,122.56 80.5,135.5C 77.5,135.5 74.5,135.5 71.5,135.5C 77.1667,128.833 82.8333,122.167 88.5,115.5C 96.2356,109.091 104.236,103.091 112.5,97.5 Z"/></g>
<g><path style="opacity:1" fill="#ae2edd" d="M 111.5,161.5 C 103.833,161.5 96.1667,161.5 88.5,161.5C 88.5,158.5 88.5,155.5 88.5,152.5C 96.1667,152.5 103.833,152.5 111.5,152.5C 111.5,155.5 111.5,158.5 111.5,161.5 Z"/></g>
<g><path style="opacity:0.943" fill="#37067a" d="M 85.5,161.5 C 86.5,161.5 87.5,161.5 88.5,161.5C 96.1667,161.5 103.833,161.5 111.5,161.5C 112.5,161.5 113.5,161.5 114.5,161.5C 123.839,161.334 133.173,161.5 142.5,162C 147.389,164.737 149.389,168.903 148.5,174.5C 147.5,174.5 146.5,174.5 145.5,174.5C 145.801,169.952 143.801,166.785 139.5,165C 112.5,164.333 85.5,164.333 58.5,165C 54.8095,167.169 53.1429,170.336 53.5,174.5C 52.5,174.5 51.5,174.5 50.5,174.5C 49.6113,168.903 51.6113,164.737 56.5,162C 66.1609,161.5 75.8276,161.334 85.5,161.5 Z"/></g>
<g><path style="opacity:1" fill="#9b27c7" d="M 145.5,174.5 C 114.833,174.5 84.1667,174.5 53.5,174.5C 53.1429,170.336 54.8095,167.169 58.5,165C 85.5,164.333 112.5,164.333 139.5,165C 143.801,166.785 145.801,169.952 145.5,174.5 Z"/></g>
<g><path style="opacity:1" fill="#ad2edc" d="M 60.5,165.5 C 86.5021,165.333 112.502,165.5 138.5,166C 140.602,167.733 140.935,169.733 139.5,172C 112.833,172.667 86.1667,172.667 59.5,172C 58.4204,169.701 58.7537,167.534 60.5,165.5 Z"/></g>
<g><path style="opacity:1" fill="#370788" d="M 50.5,174.5 C 51.5,174.5 52.5,174.5 53.5,174.5C 84.1667,174.5 114.833,174.5 145.5,174.5C 146.5,174.5 147.5,174.5 148.5,174.5C 148.5,175.5 148.5,176.5 148.5,177.5C 115.833,177.5 83.1667,177.5 50.5,177.5C 50.5,176.5 50.5,175.5 50.5,174.5 Z"/></g>
</svg>
